<svg width="16" height="16" viewBox="0 0 16 16" fill="none" xmlns="http://www.w3.org/2000/svg">
	<path d="M9.09504 14.9138C9.18144 15.4593 8.80857 15.9782 8.25657 15.9959C7.12394 16.0322 5.9925 15.8276 4.93853 15.391C3.57546 14.8264 2.39507 13.8959 1.52786 12.7023C0.660658 11.5087 0.140418 10.0985 0.0246613 8.62767C-0.0910956 7.15684 0.20214 5.68265 0.871948 4.36808C1.54176 3.0535 2.56204 1.94976 3.82001 1.17888C5.07798 0.407995 6.52462 2.6376e-08 8 0C9.47538 -2.6376e-08 10.922 0.407995 12.18 1.17888C13.1527 1.77495 13.9833 2.57003 14.6196 3.50771C14.9297 3.9647 14.7291 4.57133 14.237 4.82207V4.82207C13.745 5.0728 13.149 4.87057 12.8201 4.4269C12.3642 3.81194 11.7929 3.28735 11.135 2.88416C10.1915 2.306 9.10653 2 8 2C6.89347 2 5.80848 2.306 4.86501 2.88416C3.92153 3.46232 3.15632 4.29013 2.65396 5.27606C2.1516 6.26199 1.93168 7.36763 2.0185 8.47075C2.10531 9.57388 2.49549 10.6315 3.1459 11.5267C3.7963 12.4219 4.6816 13.1198 5.7039 13.5433C6.41681 13.8386 7.17699 13.9924 7.94246 13.9997C8.49472 14.005 9.00865 14.3683 9.09504 14.9138V14.9138Z" fill="#91959C"/>
</svg>
